HIERARCHY
ROOT Root
{
  OFFSET 0.0 0.0 0.0
  CHANNELS 6 Xposition Yposition Zposition Zrotation Yrotation Xrotation
  JOINT Hips
  {
    OFFSET 0.0 100.0 0.0
    CHANNELS 6 Xposition Yposition Zposition Zrotation Yrotation Xrotation
    JOINT Spine1
    {
      OFFSET 5.003913 -0.037094 -0.013727
      CHANNELS 3 Zrotation Yrotation Xrotation
      JOINT Spine2
      {
        OFFSET 7.125363 -1e-06 0.0
        CHANNELS 3 Zrotation Yrotation Xrotation
        JOINT Chest
        {
          OFFSET 7.594027 1e-06 0.0
          CHANNELS 3 Zrotation Yrotation Xrotation
          JOINT Neck1
          {
            OFFSET 26.313086 -0.460272 -0.181672
            CHANNELS 3 Zrotation Yrotation Xrotation
            JOINT Neck2
            {
              OFFSET 8.045911 0.0 0.0
              CHANNELS 3 Zrotation Yrotation Xrotation
              JOINT Head
              {
                OFFSET 6.432774 0.0 0.0
                CHANNELS 3 Zrotation Yrotation Xrotation
                JOINT HeadEnd
                {
                  OFFSET 16.169773 0.06451 0.00362
                  CHANNELS 3 Zrotation Yrotation Xrotation
                }
                JOINT Jaw
                {
                  OFFSET 0.108741 3.12938 0.002639
                  CHANNELS 3 Zrotation Yrotation Xrotation
                }
                JOINT LeftEye
                {
                  OFFSET 4.45173 8.166359 3.206392
                  CHANNELS 3 Zrotation Yrotation Xrotation
                }
                JOINT RightEye
                {
                  OFFSET 4.436895 8.135758 -3.222429
                  CHANNELS 3 Zrotation Yrotation Xrotation
                }
              }
            }
          }
          JOINT LeftShoulder
          {
            OFFSET 23.218927 5.195579 1.621656
            CHANNELS 3 Zrotation Yrotation Xrotation
            JOINT LeftArm
            {
              OFFSET 15.902118 2e-06 -2e-06
              CHANNELS 3 Zrotation Yrotation Xrotation
              JOINT LeftForeArm
              {
                OFFSET 28.739307 0.0 -1e-06
                CHANNELS 3 Zrotation Yrotation Xrotation
                JOINT LeftHand
                {
                  OFFSET 27.093981 -4e-06 0.0
                  CHANNELS 3 Zrotation Yrotation Xrotation
                  JOINT LeftHandThumb1
                  {
                    OFFSET 2.276781 3.380274 0.83384
                    CHANNELS 3 Zrotation Yrotation Xrotation
                    JOINT LeftHandThumb2
                    {
                      OFFSET 4.705309 -1e-06 -1e-06
                      CHANNELS 3 Zrotation Yrotation Xrotation
                      JOINT LeftHandThumb3
                      {
                        OFFSET 2.798515 0.0 3e-06
                        CHANNELS 3 Zrotation Yrotation Xrotation
                        JOINT LeftHandThumbEnd
                        {
                          OFFSET 3.180793 4e-06 -4e-06
                          CHANNELS 3 Zrotation Yrotation Xrotation
                        }
                      }
                    }
                  }
                  JOINT LeftHandIndex1
                  {
                    OFFSET 3.247786 2.352677 0.137192
                    CHANNELS 3 Zrotation Yrotation Xrotation
                    JOINT LeftHandIndex2
                    {
                      OFFSET 6.367095 1e-06 0.0
                      CHANNELS 3 Zrotation Yrotation Xrotation
                      JOINT LeftHandIndex3
                      {
                        OFFSET 3.662364 0.0 0.0
                        CHANNELS 3 Zrotation Yrotation Xrotation
                        JOINT LeftHandIndex4
                        {
                          OFFSET 2.329242 4e-06 -4e-06
                          CHANNELS 3 Zrotation Yrotation Xrotation
                          JOINT LeftHandIndexEnd
                          {
                            OFFSET 2.767823 1e-06 0.0
                            CHANNELS 3 Zrotation Yrotation Xrotation
                          }
                        }
                      }
                    }
                  }
                  JOINT LeftHandMiddle1
                  {
                    OFFSET 3.163612 0.945023 -0.406112
                    CHANNELS 3 Zrotation Yrotation Xrotation
                    JOINT LeftHandMiddle2
                    {
                      OFFSET 6.276789 3e-06 0.0
                      CHANNELS 3 Zrotation Yrotation Xrotation
                      JOINT LeftHandMiddle3
                      {
                        OFFSET 4.35652 -1e-06 4e-06
                        CHANNELS 3 Zrotation Yrotation Xrotation
                        JOINT LeftHandMiddle4
                        {
                          OFFSET 2.996877 0.0 8e-06
                          CHANNELS 3 Zrotation Yrotation Xrotation
                          JOINT LeftHandMiddleEnd
                          {
                            OFFSET 2.323256 3e-06 -4e-06
                            CHANNELS 3 Zrotation Yrotation Xrotation
                          }
                        }
                      }
                    }
                  }
                  JOINT LeftHandRing1
                  {
                    OFFSET 2.882606 -0.309162 0.107445
                    CHANNELS 3 Zrotation Yrotation Xrotation
                    JOINT LeftHandRing2
                    {
                      OFFSET 6.033198 0.0 4e-06
                      CHANNELS 3 Zrotation Yrotation Xrotation
                      JOINT LeftHandRing3
                      {
                        OFFSET 4.350578 3e-06 0.0
                        CHANNELS 3 Zrotation Yrotation Xrotation
                        JOINT LeftHandRing4
                        {
                          OFFSET 2.651321 2e-06 -7e-06
                          CHANNELS 3 Zrotation Yrotation Xrotation
                          JOINT LeftHandRingEnd
                          {
                            OFFSET 1.937663 1e-06 -4e-06
                            CHANNELS 3 Zrotation Yrotation Xrotation
                          }
                        }
                      }
                    }
                  }
                  JOINT LeftHandPinky1
                  {
                    OFFSET 2.865315 -1.525436 0.575687
                    CHANNELS 3 Zrotation Yrotation Xrotation
                    JOINT LeftHandPinky2
                    {
                      OFFSET 5.54936 1e-06 -8e-06
                      CHANNELS 3 Zrotation Yrotation Xrotation
                      JOINT LeftHandPinky3
                      {
                        OFFSET 3.070974 0.0 -4e-06
                        CHANNELS 3 Zrotation Yrotation Xrotation
                        JOINT LeftHandPinky4
                        {
                          OFFSET 1.549672 1e-06 0.0
                          CHANNELS 3 Zrotation Yrotation Xrotation
                          JOINT LeftHandPinkyEnd
                          {
                            OFFSET 1.952123 0.0 0.0
                            CHANNELS 3 Zrotation Yrotation Xrotation
                          }
                        }
                      }
                    }
                  }
                }
              }
            }
          }
          JOINT RightShoulder
          {
            OFFSET 23.161716 5.296122 -1.380114
            CHANNELS 3 Zrotation Yrotation Xrotation
            JOINT RightArm
            {
              OFFSET -16.027195 -2e-06 1.1e-05
              CHANNELS 3 Zrotation Yrotation Xrotation
              JOINT RightForeArm
              {
                OFFSET -28.736639 4e-06 2e-06
                CHANNELS 3 Zrotation Yrotation Xrotation
                JOINT RightHand
                {
                  OFFSET -27.133619 6e-06 0.0
                  CHANNELS 3 Zrotation Yrotation Xrotation
                  JOINT RightHandThumb1
                  {
                    OFFSET -2.274328 -3.351035 -0.83067
                    CHANNELS 3 Zrotation Yrotation Xrotation
                    JOINT RightHandThumb2
                    {
                      OFFSET -4.703594 -3e-06 2e-06
                      CHANNELS 3 Zrotation Yrotation Xrotation
                      JOINT RightHandThumb3
                      {
                        OFFSET -2.794935 -4e-06 -3e-06
                        CHANNELS 3 Zrotation Yrotation Xrotation
                        JOINT RightHandThumbEnd
                        {
                          OFFSET -3.183852 4e-06 1e-06
                          CHANNELS 3 Zrotation Yrotation Xrotation
                        }
                      }
                    }
                  }
                  JOINT RightHandIndex1
                  {
                    OFFSET -3.253496 -2.33755 -0.127667
                    CHANNELS 3 Zrotation Yrotation Xrotation
                    JOINT RightHandIndex2
                    {
                      OFFSET -6.344434 0.0 0.0
                      CHANNELS 3 Zrotation Yrotation Xrotation
                      JOINT RightHandIndex3
                      {
                        OFFSET -3.654871 0.0 -8e-06
                        CHANNELS 3 Zrotation Yrotation Xrotation
                        JOINT RightHandIndex4
                        {
                          OFFSET -2.327586 -1e-06 0.0
                          CHANNELS 3 Zrotation Yrotation Xrotation
                          JOINT RightHandIndexEnd
                          {
                            OFFSET -2.770001 3e-06 8e-06
                            CHANNELS 3 Zrotation Yrotation Xrotation
                          }
                        }
                      }
                    }
                  }
                  JOINT RightHandMiddle1
                  {
                    OFFSET -3.168223 -0.944764 0.411762
                    CHANNELS 3 Zrotation Yrotation Xrotation
                    JOINT RightHandMiddle2
                    {
                      OFFSET -6.266691 -1e-06 -4e-06
                      CHANNELS 3 Zrotation Yrotation Xrotation
                      JOINT RightHandMiddle3
                      {
                        OFFSET -4.348901 0.0 0.0
                        CHANNELS 3 Zrotation Yrotation Xrotation
                        JOINT RightHandMiddle4
                        {
                          OFFSET -3.00024 2e-06 -4e-06
                          CHANNELS 3 Zrotation Yrotation Xrotation
                          JOINT RightHandMiddleEnd
                          {
                            OFFSET -2.321477 -4e-06 -4e-06
                            CHANNELS 3 Zrotation Yrotation Xrotation
                          }
                        }
                      }
                    }
                  }
                  JOINT RightHandRing1
                  {
                    OFFSET -2.885654 0.293261 -0.119232
                    CHANNELS 3 Zrotation Yrotation Xrotation
                    JOINT RightHandRing2
                    {
                      OFFSET -6.032835 -1e-06 -4e-06
                      CHANNELS 3 Zrotation Yrotation Xrotation
                      JOINT RightHandRing3
                      {
                        OFFSET -4.33881 0.0 -4e-06
                        CHANNELS 3 Zrotation Yrotation Xrotation
                        JOINT RightHandRing4
                        {
                          OFFSET -2.654903 -4e-06 -4e-06
                          CHANNELS 3 Zrotation Yrotation Xrotation
                          JOINT RightHandRingEnd
                          {
                            OFFSET -1.935122 0.0 4e-06
                            CHANNELS 3 Zrotation Yrotation Xrotation
                          }
                        }
                      }
                    }
                  }
                  JOINT RightHandPinky1
                  {
                    OFFSET -2.866241 1.503904 -0.60527
                    CHANNELS 3 Zrotation Yrotation Xrotation
                    JOINT RightHandPinky2
                    {
                      OFFSET -5.553177 -2e-06 0.0
                      CHANNELS 3 Zrotation Yrotation Xrotation
                      JOINT RightHandPinky3
                      {
                        OFFSET -3.062664 -1e-06 -4e-06
                        CHANNELS 3 Zrotation Yrotation Xrotation
                        JOINT RightHandPinky4
                        {
                          OFFSET -1.546529 2e-06 4e-06
                          CHANNELS 3 Zrotation Yrotation Xrotation
                          JOINT RightHandPinkyEnd
                          {
                            OFFSET -1.952341 0.0 -4e-06
                            CHANNELS 3 Zrotation Yrotation Xrotation
                          }
                        }
                      }
                    }
                  }
                }
              }
            }
          }
        }
      }
    }
    JOINT LeftLeg
    {
      OFFSET -8.443107 2.567604 10.043214
      CHANNELS 3 Zrotation Yrotation Xrotation
      JOINT LeftShin
      {
        OFFSET 43.229198 1e-06 -1e-06
        CHANNELS 3 Zrotation Yrotation Xrotation
        JOINT LeftFoot
        {
          OFFSET 42.298611 1e-06 1e-06
          CHANNELS 3 Zrotation Yrotation Xrotation
          JOINT LeftToeBase
          {
            OFFSET 14.165858 1e-06 0.0
            CHANNELS 3 Zrotation Yrotation Xrotation
            JOINT LeftToeEnd
            {
              OFFSET 6.7141 -0.234461 0.0
              CHANNELS 3 Zrotation Yrotation Xrotation
            }
          }
        }
      }
    }
    JOINT RightLeg
    {
      OFFSET -8.303923 2.592729 -10.047278
      CHANNELS 3 Zrotation Yrotation Xrotation
      JOINT RightShin
      {
        OFFSET -43.369682 0.0 1e-06
        CHANNELS 3 Zrotation Yrotation Xrotation
        JOINT RightFoot
        {
          OFFSET -42.260784 4e-06 2e-06
          CHANNELS 3 Zrotation Yrotation Xrotation
          JOINT RightToeBase
          {
            OFFSET -14.222245 -2e-06 -1e-06
            CHANNELS 3 Zrotation Yrotation Xrotation
            JOINT RightToeEnd
            {
              OFFSET -6.660062 0.232574 -2e-06
              CHANNELS 3 Zrotation Yrotation Xrotation
            }
          }
        }
      }
    }
  }
}
MOTION
Frames: 5
Frame Time: 0.03333333333333333
0.0 0.0 0.0 0.0 -0.0 0.0 1.057902 95.577942 -5.759303 92.39463 -0.568976 89.24115 3.708749 0.953203 -0.523453 -9.7532 -0.195698 -3.754923 16.518045 2.804379 -4.993119 25.235994 -7.522613 2.282359 -2.477745 -0.668953 0.99375 -33.565987 -2.894645 2.929905 6e-06 -0.0 0.0 -0.071417 0.028866 0.055141 -0.071335 0.09152 0.057476 -0.049456 -0.038783 0.061471 -67.639984 -81.787758 77.9422 78.305206 -38.626968 -30.076017 44.532059 -0.276901 0.397007 -4.076262 19.170952 0.405077 17.636641 -26.322733 52.41119 -19.466665 -14.395597 29.410389 0.0 -8.774824 -1e-06 15.720139 -18.630177 6.506712 -0.609776 -1.795655 -3.889329 -4.807088 -11.046811 -2.937851 3e-06 -20.976015 3e-06 -5.019968 -25.033556 -4.031879 6e-06 1e-06 1e-06 -10.634535 -5.686973 -3.565586 10.573277 -17.922949 -3.113901 -0.0 -13.821209 2e-06 -0.501779 -31.181505 -4.027015 -10.796429 -59.381596 6.516342 -13.982714 -7.150198 -2.875044 13.772731 -8.401492 -3.21824 0.347734 -34.211555 0.771658 -0.963032 -17.73337 2.621022 -2e-06 0.0 0.0 -17.346422 -20.095219 -4.201782 21.757557 -1.638378 3.866427 0.0 -6.338825 3e-06 -1.69759 -22.591751 -6.194005 -0.0 -3e-06 -3e-06 90.243408 -76.553719 106.235329 -38.916092 -71.97123 54.222706 17.977259 0.379779 0.103407 3.172596 -4.719719 -2.722258 22.182108 -20.375895 49.933327 -16.701813 -16.743526 28.476536 -2e-06 -12.690601 1e-06 14.72597 -16.621403 2.689809 -0.105919 -1.513856 -4.275881 -5.03904 -5.612873 -2.953556 5e-06 -11.020525 -2e-06 -6.111297 -15.895334 -3.840471 -0.0 2e-06 1e-06 -10.283369 -5.680289 -4.341838 11.028294 -11.302406 -2.372634 -1.384267 -14.238582 -6.320122 -0.625436 -26.924194 -3.827607 -3.810904 -48.112637 -3.818798 -13.708522 -7.363477 -3.720939 18.14115 -14.052739 -3.242676 6e-06 -18.78727 -2e-06 -0.429712 -8.456047 2.555503 1e-06 -0.0 1e-06 -15.923531 -20.094484 -5.473584 30.419207 -7.190826 1.735924 3e-06 -8.162921 0.0 -1.861902 -22.861467 -6.167942 -0.0 -3e-06 -1e-06 -167.706406 -11.063145 3.203846 28.826294 -0.284673 0.780555 -75.63179 3.75272 -16.167721 -21.730825 2.136611 2.188299 -1.0 0.0 -0.0 -28.517338 -13.463094 -6.13076 12.390786 -0.0872 -0.146961 -65.00666 -4.340673 -8.770664 -9.138959 0.643236 1.65499 -1.000002 1e-06 0.0 
0.0 0.0 0.0 0.0 -0.0 0.0 -1.736439 95.297256 1.147184 92.26223 1.130613 89.188736 3.463637 1.578952 -0.227928 -9.98127 -0.036207 -3.041632 16.516071 2.973186 -3.896802 27.505001 -8.422737 2.307979 -2.595621 -0.870964 0.697448 -31.692276 -3.236427 2.12071 6e-06 -0.0 0.0 -0.082524 0.036306 0.082014 -0.038263 0.082105 0.113889 -0.036015 -0.013361 0.055091 -81.199333 -79.421745 92.759354 74.770073 -42.024094 -22.848732 49.845833 -0.389741 -0.057367 -0.948264 18.186193 0.585027 17.636627 -26.322733 52.411194 -19.466661 -14.395602 29.410393 -0.0 -8.774823 1e-06 16.396612 -18.222326 5.991868 -0.609776 -1.795655 -3.889328 -4.807088 -11.046812 -2.937852 3e-06 -20.976019 -0.0 -5.019975 -25.03356 -4.031881 7e-06 0.0 -1e-06 -10.634535 -5.686971 -3.565586 10.573276 -17.922951 -3.113901 -0.0 -13.821211 3e-06 -0.501779 -31.181505 -4.027017 -10.25633 -59.726097 5.967611 -13.982714 -7.150196 -2.875042 13.772729 -8.401497 -3.21824 0.347733 -34.211552 0.771657 -0.963031 -17.73337 2.621021 0.0 -0.0 0.0 -17.34642 -20.095219 -4.201782 21.757566 -1.638374 3.866428 -0.0 -6.338825 2e-06 -1.69759 -22.591745 -6.194007 -2e-06 -4e-06 -2e-06 90.256508 -77.890999 106.907997 -32.45499 -74.073845 49.262466 14.764764 0.359462 -0.020484 0.708008 -6.709403 -0.629472 22.18211 -20.375891 49.933308 -16.701809 -16.743526 28.476524 -2e-06 -12.690601 0.0 14.172133 -16.695984 3.109299 -0.105921 -1.513855 -4.27588 -5.039042 -5.612872 -2.953557 4e-06 -11.020523 -2e-06 -6.111297 -15.895334 -3.84047 1e-06 1e-06 0.0 -10.28337 -5.680288 -4.341838 11.028293 -11.302402 -2.372633 -1.384269 -14.23858 -6.32012 -0.625439 -26.924187 -3.827601 -4.041318 -47.685081 -3.627504 -13.708527 -7.363475 -3.72094 18.141148 -14.052738 -3.242674 5e-06 -18.787262 -3e-06 -0.429712 -8.45604 2.555501 0.0 -1e-06 -0.0 -15.923536 -20.094482 -5.473584 30.419207 -7.190826 1.735927 3e-06 -8.162922 -0.0 -1.861905 -22.861467 -6.16794 1e-06 -5e-06 -1e-06 -169.454849 -12.165615 4.625247 42.044785 -0.570493 0.771787 -69.285873 3.577101 -16.190218 -20.261024 1.948866 2.20407 -0.999995 -0.0 0.0 -25.673046 -13.359086 -7.882333 15.972608 0.119546 -0.299129 -61.617035 -2.087112 -10.377438 -8.045959 0.624653 1.625426 -1.000001 1e-06 0.0 
0.0 0.0 0.0 0.0 -0.0 0.0 -4.051981 94.952339 7.4536 90.189552 2.214769 87.79464 4.036227 3.508504 0.197388 -9.894344 0.560782 -1.859872 16.241589 4.158535 -2.897008 28.341837 -9.545334 2.231539 -2.63218 -0.82452 -0.074955 -32.120033 -3.884287 1.650724 6e-06 0.0 0.0 -0.088717 0.044975 -0.009059 -0.060073 0.078945 0.026063 -0.086244 0.006096 -0.036764 -87.917534 -76.241791 99.879234 70.411041 -46.765839 -16.761858 50.478168 -0.399363 -0.538034 -1.052879 17.600357 0.343195 17.636641 -26.322742 52.411198 -19.466665 -14.395598 29.410393 -1e-06 -8.774822 -3e-06 16.452652 -18.103048 5.630645 -0.609776 -1.795655 -3.889329 -4.807087 -11.046812 -2.937853 6e-06 -20.976017 -1e-06 -5.019972 -25.03356 -4.031878 7e-06 -0.0 0.0 -10.634533 -5.686972 -3.565588 10.573277 -17.922953 -3.113901 2e-06 -13.82121 4e-06 -0.501777 -31.181511 -4.027014 -10.869176 -59.84103 6.371725 -13.982714 -7.150196 -2.875043 13.772729 -8.401495 -3.218241 0.347732 -34.211559 0.771658 -0.963028 -17.733372 2.621022 -1e-06 0.0 1e-06 -17.34642 -20.095221 -4.201783 21.757563 -1.638378 3.866429 2e-06 -6.338823 1e-06 -1.697588 -22.591749 -6.194005 -0.0 -3e-06 -2e-06 95.703316 -80.193283 101.167435 -18.681183 -74.928825 36.050816 17.76549 -0.417267 -0.072646 0.329483 -4.205818 -1.062459 22.182117 -20.375895 49.933323 -16.701817 -16.743528 28.476534 -4e-06 -12.690603 -1e-06 14.963005 -17.209444 2.941962 -0.10592 -1.513857 -4.275882 -5.039042 -5.612873 -2.953557 5e-06 -11.020527 -2e-06 -6.1113 -15.895338 -3.840471 -0.0 1e-06 -2e-06 -10.283373 -5.680289 -4.341839 11.028297 -11.302407 -2.372635 -1.384269 -14.238588 -6.320122 -0.625436 -26.924198 -3.827605 -3.974848 -48.678192 -3.659181 -13.708527 -7.363479 -3.72094 18.141153 -14.052744 -3.242676 7e-06 -18.787271 -4e-06 -0.429712 -8.456048 2.555504 0.0 3e-06 0.0 -15.923536 -20.09449 -5.473586 30.419214 -7.190827 1.735925 3e-06 -8.162927 -1e-06 -1.861901 -22.861479 -6.167946 0.0 -2e-06 -0.0 -175.611603 -13.928844 3.913174 58.959209 -0.905079 0.607801 -67.908081 0.03263 -14.989426 -10.107718 1.765912 2.561195 -0.999997 1e-06 0.0 -26.019878 -10.830597 -8.397007 26.489315 0.171264 -0.046882 -65.794098 -1.234094 -9.140668 -6.170005 0.558077 1.6428 -1.000002 0.0 0.0 
0.0 0.0 0.0 0.0 -0.0 0.0 -5.928033 95.153717 13.287526 87.726212 2.304784 86.944183 4.163349 5.281385 0.379269 -9.750293 1.158475 -1.169814 16.227634 5.938674 -2.465584 28.314779 -10.016331 2.048431 -2.619359 -0.753611 -0.744158 -33.057907 -4.515039 1.700419 6e-06 -0.0 -0.0 -0.071108 0.033876 -0.023548 -0.019967 0.064062 0.02513 -0.021968 -0.00584 -0.063769 -87.669144 -73.349762 100.067574 66.903938 -52.262936 -12.767608 44.547115 -0.737697 -0.718936 -2.3645 17.64595 -1.353495 17.636631 -26.322737 52.411194 -19.46665 -14.395594 29.410385 -0.0 -8.774819 -2e-06 16.243357 -18.260248 5.614272 -0.609776 -1.795651 -3.889327 -4.807087 -11.046811 -2.937852 3e-06 -20.976011 1e-06 -5.019969 -25.033546 -4.031876 6e-06 0.0 -2e-06 -10.634531 -5.686971 -3.56559 10.573268 -17.922947 -3.113897 3e-06 -13.821205 3e-06 -0.501778 -31.181501 -4.027012 -11.637992 -59.738537 6.758089 -13.982711 -7.150196 -2.875045 13.772723 -8.401491 -3.218238 0.347733 -34.211544 0.771658 -0.96303 -17.73337 2.621022 -1e-06 0.0 -1e-06 -17.346415 -20.095209 -4.201782 21.757555 -1.638375 3.866428 0.0 -6.338824 -0.0 -1.697591 -22.591742 -6.194002 1e-06 -4e-06 -0.0 100.746414 -81.681808 95.07193 -1.072491 -72.437637 19.509811 25.848942 -0.28462 -0.18093 1.002636 -0.519953 -1.634345 22.182114 -20.375887 49.933308 -16.701809 -16.743528 28.476522 -1e-06 -12.690601 -2e-06 16.275537 -17.666208 2.299027 -0.105919 -1.513856 -4.275881 -5.039041 -5.612871 -2.953557 4e-06 -11.02052 -2e-06 -6.111299 -15.895329 -3.840471 -0.0 -1e-06 -1e-06 -10.28337 -5.680288 -4.341838 11.028295 -11.302402 -2.372632 -1.384269 -14.238579 -6.320121 -0.625438 -26.924183 -3.827601 -3.491782 -49.588531 -4.178103 -13.708524 -7.363475 -3.720939 18.141148 -14.052734 -3.242673 6e-06 -18.787262 -2e-06 -0.429712 -8.456043 2.555503 0.0 1e-06 0.0 -15.923534 -20.094479 -5.473585 30.41921 -7.190823 1.735926 3e-06 -8.162922 -1e-06 -1.861904 -22.86146 -6.167939 -0.0 -3e-06 -1e-06 176.270081 -15.156857 3.784814 71.206581 -0.883658 0.52857 -73.435379 -2.669381 -12.63039 -8.092936 1.745271 2.693438 -0.999998 -1e-06 -0.0 -24.159388 -7.594392 -9.61869 31.574965 0.080772 -0.010051 -72.606606 -0.646117 -8.556087 -5.593899 0.521687 1.639704 -1.000002 -0.0 0.0 
0.0 0.0 0.0 0.0 -0.0 0.0 -7.475309 96.317497 19.028322 87.240196 2.467474 86.577309 4.212139 5.668739 0.317821 -9.636016 1.270075 -0.865876 16.134985 6.751204 -2.464688 28.364073 -9.116876 2.206561 -2.555363 -0.687999 -1.365728 -33.139061 -4.796688 1.774813 6e-06 0.0 -0.0 -0.060763 0.02286 -0.095008 0.042011 0.054878 -0.032925 0.049334 -0.019463 -0.152026 -82.873825 -72.370323 95.48819 61.262829 -57.770176 -6.22773 34.798977 -1.452632 -0.809906 -4.904996 14.850529 -2.815073 17.636625 -26.322729 52.411179 -19.466656 -14.395598 29.410378 -1e-06 -8.774821 -1e-06 16.202204 -18.240263 5.789811 -0.609775 -1.795653 -3.889325 -4.80709 -11.04681 -2.937849 4e-06 -20.976015 -0.0 -5.019972 -25.033556 -4.031881 5e-06 1e-06 1e-06 -10.634532 -5.686969 -3.565585 10.573272 -17.922947 -3.113899 3e-06 -13.821205 2e-06 -0.501779 -31.181498 -4.027015 -12.198684 -60.092968 7.407903 -13.98271 -7.150197 -2.875039 13.772726 -8.40149 -3.21824 0.347732 -34.211544 0.771656 -0.96303 -17.73337 2.621022 -0.0 1e-06 1e-06 -17.346416 -20.095213 -4.20178 21.757555 -1.638376 3.866426 1e-06 -6.338821 -0.0 -1.697591 -22.591742 -6.194002 0.0 -4e-06 -2e-06 98.980194 -82.573975 95.749481 10.944688 -67.633202 4.89118 36.908405 0.056487 -0.245243 0.436087 3.907253 -0.41169 22.182112 -20.375887 49.933308 -16.701811 -16.743528 28.476522 -3e-06 -12.690601 -1e-06 16.926584 -17.834637 1.972928 -0.105919 -1.513855 -4.275879 -5.03904 -5.61287 -2.953556 4e-06 -11.02052 -2e-06 -6.111297 -15.895329 -3.84047 0.0 -1e-06 0.0 -10.283369 -5.680287 -4.341836 11.028292 -11.302403 -2.372633 -1.384269 -14.238579 -6.32012 -0.625437 -26.924187 -3.8276 -3.625923 -49.849949 -4.302256 -13.708523 -7.363475 -3.720938 18.141146 -14.052738 -3.242674 9e-06 -18.787268 -3e-06 -0.429712 -8.456039 2.555504 0.0 2e-06 0.0 -15.923534 -20.094479 -5.473583 30.41921 -7.190825 1.735926 3e-06 -8.162925 -1e-06 -1.861902 -22.861464 -6.167942 0.0 -3e-06 -1e-06 168.678024 -13.020547 3.314816 76.785896 -0.526889 0.385871 -80.403908 -5.721773 -10.072309 -8.627293 1.766359 2.571084 -1.0 -0.0 -0.0 -19.345142 -6.098684 -10.27711 30.707195 0.039391 -0.045483 -76.561234 0.073241 -8.324816 -5.360113 0.486631 1.634918 -1.000003 -1e-06 0.0 
